<?xml version="1.0" standalone="no"?>
<!DOCTYPE svg PUBLIC "-//W3C//DTD SVG 1.1//EN" "http://www.w3.org/Graphics/SVG/1.1/DTD/svg11.dtd" >
<svg xmlns="http://www.w3.org/2000/svg">
<metadata>Generated by IcoMoon</metadata>
<defs>
<font id="icomoon" horiz-adv-x="1024">
<font-face units-per-em="1024" ascent="960" descent="-64" />
<missing-glyph horiz-adv-x="1024" />
<glyph unicode="&#x20;" horiz-adv-x="512" d="" />
<glyph unicode="&#xe900;" glyph-name="chest" d="M117.106 782l-32.566-245.6h73.46v245.6h-40.894zM194 782v-245.6h76v245.6h-76zM306 782v-245.6h113.332v35.2h185.336v-35.2h113.332v245.6h-412zM754 782v-245.6h76v245.6h-76zM866 782v-245.6h73.46l-32.568 245.6h-40.892zM455.332 535.6v-210.4h113.336v210.4h-113.336zM512 512.412c20.616-0.001 37.328-14.416 37.332-32.2v0c-0.016-12.076-7.733-22.594-19.143-28.096l-0.189-0.084v-74.428h-36v74.396c-11.609 5.591-19.331 16.124-19.332 28.212v0c0.004 17.784 16.716 32.199 37.332 32.2v0zM82 500.4v-255.83l38.668-36.46v292.29h-38.668zM156.668 500.4v-316h710.664v316h-262.664v-211.2h-185.336v211.2h-262.664zM903.332 500.4v-292.29l38.668 36.46v255.83h-38.668zM82 195.088v-81.088h86.004l-86.004 81.090zM942 195.088l-86.004-81.088h86.004v81.090zM184 148.4l36.48-34.4h583.040l36.48 34.4h-656z" />
<glyph unicode="&#xe901;" glyph-name="save" d="M128 864c-17.452 0-32-14.548-32-32v-768c0-17.452 14.548-32 32-32h430v32h-430v768h126.75v-195.060c0-7.848 6.886-14.19 15.44-14.19h339.62c8.554 0 15.44 6.34 15.44 14.188v195.062h138.44c0.856-0.636 1.6-1.096 2.934-2.188 4.1-3.35 9.924-8.528 16.75-14.812 13.654-12.566 31.3-29.674 48.626-47s34.434-34.972 47-48.626c6.284-6.826 11.46-12.648 14.812-16.748 1.092-1.336 1.552-2.080 2.188-2.94v-400.186l32-32v436.5c0 5.36-1.314 6.804-2.060 8.312-0.75 1.508-1.45 2.588-2.19 3.688-1.48 2.2-3.15 4.38-5.188 6.876-4.072 4.984-9.536 11.1-16.060 18.186-13.048 14.18-30.31 32-47.876 49.564-17.564 17.566-35.384 34.828-49.56 47.876-7.090 6.524-13.2 11.988-18.188 16.060-2.494 2.040-4.674 3.71-6.876 5.19-1.1 0.74-2.18 1.44-3.688 2.188-1.508 0.746-2.954 2.060-8.312 2.060h-640.002zM303.44 832h97.12c8.554 0 15.44-8.85 15.44-19.876v-140.248c0-11.026-6.886-19.876-15.44-19.876h-97.12c-8.554 0-15.44 8.85-15.44 19.876v140.248c0 11.024 6.886 19.874 15.44 19.874zM228 536c-8.864 0-16-7.136-16-16v-368c0-8.864 7.136-16 16-16h330v56h-153.44l30.69 30.75 268.75 268.69 12.75-12.69 95.25-95.25v136.5c0 8.864-7.136 16-16 16h-568zM704 440.5l-212.5-212.5h102.5v-256h220v256h102.5l-212.5 212.5zM896 192v-128h-46v-32h46c17.452 0 32 14.548 32 32v128h-32z" />
<glyph unicode="&#xe902;" glyph-name="papers" d="M37.812 923.88v-738.46c186.988 269.344 501.048 458.94 822.928 507.060l-403.9 231.4h-419.028zM651.44 601.346c-250.68-89.242-478.63-263.45-615.126-486.482v-67.204c226.148 222.976 554 352.76 868.746 350.5l-253.62 203.188zM702.56 343.982c-250.436-43.284-493.948-167.2-666.248-349.624v-20.594h117.832c227.8 131.16 502.332 190.65 758.984 161.628l-210.568 208.592zM698.054 102.062c-160.244-11.768-320.864-55.914-465.22-128.3h532.84l-67.62 128.3z" />
<glyph unicode="&#xe903;" glyph-name="trash" d="M346.6 953v-130h-202.8v-78h702v78h-202.8v130h-296.4zM393.4 906.2h202.8v-83.2h-202.8v83.2zM187.995 698.2l78.276-743.6h457.064l78.27 743.6h-613.61zM350.074 663.412l1.664-23.348 41.6-582.4 1.672-23.338-46.686-3.336-1.664 23.348-41.6 582.4-1.672 23.338 46.686 3.336zM639.526 663.412l46.683-3.338-1.672-23.34-41.6-582.4-1.664-23.348-46.686 3.338 1.672 23.34 41.6 582.4 1.664 23.348zM471.4 661.8h46.8v-629.2h-46.8v629.2z" />
<glyph unicode="&#xe904;" glyph-name="contract" d="M192 898l-64-64 96-96-96-96h256v256l-96-96-96 96zM640 898v-256h256l-96 96 96 96-64 64-96-96-96 96zM128 386l96-96-96-96 64-64 96 96 96-96v256h-256zM640 386v-256l96 96 96-96 64 64-96 96 96 96h-256z" />
<glyph unicode="&#xe905;" glyph-name="expand" d="M128 898v-256l96 96 96-96 64 64-96 96 96 96h-256zM640 898l96-96-96-96 64-64 96 96 96-96v256h-256zM128 386v-256h256l-96 96 96 96-64 64-96-96-96 96zM704 386l-64-64 96-96-96-96h256v256l-96-96-96 96z" />
<glyph unicode="&#xe906;" glyph-name="treasure-map" d="M485.126 970.688c-20.124-0.066-40.252-0.41-60.376-1l12.188-131.188-122.19 125.126c-62.512-5.14-124.988-13.31-187.5-25.064l68.5-56.81-96.126 1.126c70.316-200.336 13.872-365.15-0.624-584l191.5-211.688c20 2.652 39.712 4.846 59.126 6.688l43.060 84.312 37.064-57.688 83 67.188 1.626-86.188c165.886 0.484 315.468-18.196 471.374-15.626-56.3 146.020-62.26 287.124-63.75 418.314l-66.5 38.25 65.376 67.748c-0.86 42.666-2.684 84.012-7.25 123.874l-114.876-1.436 100.5 83.314c-7.686 30.954-18.104 60.8-32.25 89.436l-59.060 47.812c-107.6 10.976-215.214 17.848-322.816 17.5zM602.562 896.748l63.378-148.498 44.872 62.876 14.626-24.752 81.31-138.248-32.25-18.94-66.75 113.376-84.876-118.81-30.374 21.75 48 67.188-43.94 102.812-49.12-80.126 23.934-45.25-33.060-17.5-36.5 69-49.69-116.374-34.374 14.688 80.44 188.432 28.936-54.684 56.5 92.25 18.936 30.81zM212.878 784.248h0.186l0.252-0.060 0.188-0.060 9.56-2.252 0.19-0.064 0.25-0.060 9.562-2.5 8.564-2.5 0.252-0.064 0.248-0.060 8.188-2.628 0.25-0.060 0.252-0.128 0.44-0.124-11.69-33.060-0.686-2.19h-0.060l-0.44 0.12-7.124 2.314-0.5 0.126-7.626 2.25-0.5 0.126-8.124 2.124-0.44 0.126-8.686 2-0.186 0.060-0.25 0.064 2.31 9.812 5.626 26.69zM288.626 757.5l5.314-3.060 0.372-0.19 0.312-0.25 5.314-3.312 0.31-0.25 0.376-0.252 4.874-3.376 0.376-0.25 0.374-0.31 4.56-3.5 0.38-0.25 0.31-0.312 4.25-3.56 0.312-0.316 0.38-0.312 3.872-3.688 0.376-0.312 0.312-0.376 1.688-1.75-27.060-25.75-0.94 1-0.75 0.688-2.44 2.312-0.188 0.188-0.5 0.44-2.81 2.368-0.312 0.25-0.376 0.314-3.124 2.44-0.376 0.248-0.312 0.25-3.56 2.436-0.628 0.38-0.060 0.060-4.564 2.876-4.688 2.686 18.626 32.44zM346 692.75l0.5-1.688 0.126-0.5 0.186-0.5 1-4.12 0.126-0.44 0.060-0.5 0.812-4.126 0.060-0.5 0.128-0.5 0.56-4.124 0.064-0.44v-0.5l0.376-4.12 0.060-0.44v-0.44l0.19-4.12v-5.44l-0.060-0.376-0.19-4.124v-0.44l-0.060-0.372-0.38-4.128v-0.312l-0.060-0.376-0.312-2.312-37.060 4.812 0.248 1.564 0.060 0.688 0.252 2.686v0.128l0.060 0.624 0.128 3.376v3.374l-0.126 2.38-0.25 3.186-0.56 4.124-0.628 3.126-0.75 2.812-0.060 0.312-0.25 0.688 35.75 11.060zM303.5 621.31l34.56-14.12-2.186-5.314-0.124-0.314-0.126-0.31-3.25-7.25-0.124-0.25-0.126-0.25-3.374-6.94-0.060-0.186-0.128-0.186-3.372-6.688-0.126-0.126-0.060-0.124-3.376-6.312-0.060-0.128-0.064-0.124-0.626-1.126-32.686 18.128 0.5 0.874 0.124 0.252 3.060 5.75 0.19 0.314 3.064 5.94 0.188 0.436 2.94 6.060 0.248 0.5 2.812 6.19 0.25 0.626 1.94 4.686zM270.56 553.124l35.38-12.060-0.314-0.814-0.064-0.126-2.060-7-1.812-6.874-0.060-0.44-0.128-0.372-1.312-6.628-0.876-5.374-0.060-0.44-0.064-0.5-0.376-3.812-37.188 4 0.564 4.75v0.5l0.060 0.436 1.19 7.186 0.060 0.44 0.060 0.376 1.564 7.436 0.064 0.44 0.124 0.372 1.94 7.688 0.060 0.376 0.126 0.374 2.372 7.88 0.126 0.372 0.12 0.376 0.5 1.44zM686.25 518.374l1.75-0.186h0.44l0.372-0.060 3.812-0.5 0.44-0.066 0.374-0.060 3.748-0.688 0.374-0.060 0.44-0.064 3.626-0.812 0.436-0.126 0.38-0.126 3.56-0.936 0.44-0.126 0.372-0.12 3.44-1.128 0.876-0.25 3.31-1.248 0.434-0.188 0.376-0.186 3.69-1.564 0.372-0.188 3.188-1.5 0.376-0.25 0.436-0.19 3.060-1.688 0.38-0.184 0.374-0.25 2.436-1.5-19.5-31.876-2.248 1.376-0.188 0.124-1.5 0.812-0.812 0.38-1.5 0.81-0.374 0.126-0.44 0.25-2.5 1-1.688 0.624-2.56 0.876-0.564 0.124-0.312 0.126-1.876 0.5-0.688 0.124-0.124 0.060-2 0.44-2.94 0.56-0.436 0.066-0.374 0.060-2.88 0.376h-0.12l-1 0.066 3.31 37.25zM643.81 515.374l4.752-23.75 2.94-12.874-0.376-0.060-4-0.88-0.312-0.060-0.188-0.060-4-1.066-5.064-1.436-4.31-1.376-0.44-0.124-4.434-1.5-0.44-0.188-4.624-1.688-0.374-0.124-4.316-1.688-13.624 34.812 4.688 1.812 0.188 0.126 0.25 0.060 5.374 1.94 0.188 0.126 0.25 0.060 5.248 1.752 0.25 0.124 0.184 0.060 5.188 1.628 0.25 0.060 0.19 0.066 5.126 1.436 0.186 0.066 0.252 0.060 5 1.314 0.25 0.060 0.252 0.064 4.876 1.064 0.25 0.060 0.248 0.064 0.124 0.060zM568 483.688l21.94-30.312-3.44-2.44-0.188-0.186-0.188-0.126-6.5-4.436-0.25-0.126-6.814-4.436-6.56-4-0.188-0.124-0.25-0.126-6.62-3.812-0.19-0.12-0.25-0.128-2.126-1.188-17.874 32.814 1.75 1 0.376 0.184 6.314 3.626 5.748 3.5 0.374 0.25 5.628 3.688 0.44 0.25 5.872 4.060 3 2.188zM300.94 478.248l0.248-0.874 0.124-0.56 0.94-2.752 0.12-0.248 1.816-4.374 0.124-0.38 1.188-2.372 0.25-0.44 1.688-3 0.248-0.374 1.94-2.874 0.184-0.25 2.19-2.81 0.188-0.19 2.56-2.812-27.62-25.19-2.752 3-0.44 0.44-0.374 0.5-3.248 4.060-0.374 0.5-0.38 0.56-2.936 4.316-0.374 0.5-0.312 0.56-2.69 4.564-0.312 0.56-0.314 0.566-2.376 4.75-0.25 0.624-0.25 0.56-2.060 5-0.252 0.628-0.19 0.62-1.75 5.19-0.188 0.626-0.188 0.624-0.374 1.44 36.188 9.31zM761.56 471.624l1.69-2.624 0.126-0.312 0.186-0.25 1.94-3.38 0.126-0.248 0.186-0.25 1.876-3.5 0.124-0.248 0.126-0.312 1.81-3.56 0.126-0.252 0.124-0.25 1.688-3.752 0.124-0.25 0.126-0.19 1.62-3.876 0.066-0.25 0.124-0.186 1.56-3.94 0.066-0.25 0.124-0.25 1.5-4.060 0.060-0.19 0.066-0.188 1.436-4.184 0.066-0.188 0.060-0.25 0.314-1-35.626-11.252-0.186 0.624-0.188 0.44-1.126 3.31-0.124 0.44-1.188 3.188-0.184 0.44-1.188 3.060-0.188 0.44-1.25 2.872-0.188 0.5-1.248 2.75-0.25 0.5-1.56 3.126-1.312 2.436-0.312 0.5-1.314 2.312-0.372 0.564-1.312 2.124 31.686 19.812zM506.75 449.812l13.94-34.688-6-2.436-0.19-0.060-0.188-0.066-7.188-2.684-0.186-0.126-0.252-0.060-7.376-2.566-0.25-0.060-7.622-2.502-7.314-2.184-0.188-0.064-0.19-0.060-0.376-0.064-9.936 36 0.372 0.124 6.5 1.94 0.376 0.124 6.44 2.060 0.434 0.126 6.814 2.44v-0.060l6.376 2.434 0.44 0.188 5.56 2.252zM339.25 437.5l0.5-0.25 0.126-0.060 4.436-1.752 0.75-0.252 3.94-1.376 0.5-0.124 0.312-0.126 4.188-1.184 0.25-0.064 0.44-0.124 5.12-1.25 4.628-1 0.372-0.066 0.312-0.060 5.5-0.876-2.936-17.44-0.188-1-2.44-18.56-0.372 0.060-0.312 0.060-6.814 1.19-6.372 1.31-0.376 0.066-5.874 1.436-0.314 0.128-0.376 0.124-5.688 1.626-0.372 0.12-0.44 0.128-5.872 2.002-0.44 0.188-5.31 2.060-0.376 0.188-1.75 0.748 15.25 34.128zM439.126 430.44l5.686-36.94-6.688-1-0.25-0.060h-0.25l-7.124-0.94h-0.25l-0.188-0.060-7.12-0.69-0.252-0.060h-0.25l-7-0.566h-0.502l-6.94-0.374h-0.5l-2.312-0.060-0.812 37.372 1.812 0.066h0.5l5.94 0.312 6.5 0.434v0.064l6.62 0.62 0.38 0.066h0.12l6.19 0.812 0.248 0.060h0.188l6.25 0.94zM788.126 394.44l0.75-4.752 0.060-0.25v-0.316l1.44-10.436v-0.25l0.060-0.252 1.126-10.812v-0.438l0.94-11.128-37.25-3-0.876 10.688-0.060 0.44-1 9.81v0.126l-0.064 0.436-1.25 9.312-0.060 0.564-0.752 4.25 36.94 6zM653 332.81c37.786-6.92 89.826-32.374 137.75-67.75 14.92 19.67 28.85 40.8 42.626 62.19l60.124-25.94c-9.372-24.42-29.98-51.036-57.126-74.372 34.034-32.332 61.74-69.030 74-105.88-27.612 36.216-62.14 63.46-100.56 85.628-46.774-31.692-105.364-51.86-159.252-40.876 45.83 8.766 81.288 33.12 111.628 65.188-32.924 15.008-67.596 27.754-102.5 40.188l-6.688 61.624z" />
<glyph unicode="&#xe907;" glyph-name="path-distance" d="M185.16 983.9c-64 0-128-48-128-144l128-255.9 128.040 255.9c0 96-64 144-128.040 144zM749.8 905.88l-0.6-0.42h-0.6l-6-0.48h-0.4l-6-0.64h-0.6l-6-0.82h-0.4l-6.2-1h-0.4l-6.2-1.18h-0.4l-4.6-0.98 7.6-35.2 4.2 0.92 6 1.14 5.6 0.9 5.6 0.78 5.4 0.58 5.4 0.44h0.4zM185.16 903.9c0.012 0 0.026 0 0.040 0 35.346 0 64-28.654 64-64v0c-0.057-35.303-28.689-63.9-64-63.9-0.014 0-0.028 0-0.042 0h0.002c0 0 0 0 0 0-35.311 0-63.943 28.597-64 63.894v0.006c0 35.346 28.654 64 64 64v0zM789.6 903.58l-6-35.54 1.8-0.3 4.4-0.94 4.2-1.12 4.2-1.3 4-1.46 4-1.66 3.6-1.8 2-1.1 17.4 31.58-2.8 1.54-0.4 0.2-4.6 2.22-0.8 0.4-4.8 2-0.8 0.4-4.8 1.76-0.8 0.4-5 1.54-0.4 0.2h-0.4l-5 1.32-0.4 0.2h-0.4l-5.2 1.1h-0.8zM674.6 890.12l-6-2.5h-0.4l-6.6-2.42h-0.4l-6.6-2.56h-0.4l-6.8-2.68h-0.2l-6.8-2.82h-0.2l-0.4-0.2 14.2-33.1 0.4 0.2 6.4 2.64 6.6 2.64h0.2l6.4 2.42 6.2 2.22 6.2 2.1zM862 863.28l-27.4-23.42 2-2.2 2.8-3.76 2.8-4 3.8-5.9 3.4-6 2.4-4.6 32.2 16.1-2.6 4.92-0.2 0.42-0.2 0.4-3.8 6.74-0.4 0.76-4.4 6.8-0.2 0.36-0.2 0.34-3.4 4.7-0.2 0.34-0.2 0.36-3.6 4.42-0.2 0.36-0.2 0.34zM606.4 861.46l-1.8-1.12h-0.2l-14.2-7.18h-0.2l-0.2-0.2-14.2-7.58h-0.2l-2-1.060 17.6-31.52 1.6 1h0.2l13.8 7.6 13.6 6.9h0.2l1.6 0.8zM541.8 825.8l-10-5.8v-0.2h-0.2l-14.4-9h-0.2l-6.4-4.2 19.6-30.2 6 3.8 0.2 0.2 14.2 8.8 9.6 5.8zM896.4 790l-18.6-2.8-17-2 0.2-2.8 0.4-5.2v-4.8l-0.4-5.2-0.2-2.4-0.8-4.8-1-4.2 35-8.2 1.2 4.6v0.4l0.2 0.6 0.4 3 0.2 0.2v0.4l0.4 3v0.2l0.2 0.4 0.2 3 0.2 0.4v0.2l0.2 3v0.6l0.2 3.2v7.8l-0.2 3.2v0.6l-0.4 3v0.6l-0.4 3.2v0.4zM480.2 786.6l-6.6-4.4v-0.2l-14.2-9.8h-0.2v-0.2l-8.8-6.2 20.8-29.4 8.6 6.2 14 9.8h0.2l6.4 4.4zM421 744.4l-4-2.8v-0.2l-13.8-10.2-11.2-8.6 21.8-28.6 11.2 8.2v0.2l13.4 10 0.2 0.2 3.8 2.8zM847 728.4l-2-3.2-3.6-5.2-3.8-5-4.2-5.2-4.4-5-2-2 26.2-24.8 2 2.4 0.4 0.4 5 5.6 0.4 0.4 4.6 5.6 0.2 0.2 0.2 0.4 4.4 5.6 0.2 0.4h0.2l4 6h0.2l0.2 0.4 2.2 3.6zM363.4 700.2l-0.2-0.2h-0.2l-12.8-10.2v-0.2l-12.6-10.2-2.4-2 22.8-27.8 2.4 2 12.4 10v0.2l12.6 10h0.2l0.2 0.2zM802.2 679.8l-0.6-0.4-6.2-5-6.6-5.2-6.8-4.8-0.2-0.2-7.2-5 20.6-29.6 7.4 5.2 0.2 0.2h0.2l7.2 5.4 0.2 0.2 7 5.2 0.2 0.2 6.8 5.2 0.8 0.8zM307.4 654.2l-5.6-4.6-0.2-0.2-21.8-18.6 23.4-27.4 21.8 18.8 5.4 4.4zM745.2 640.2l-1.6-1h-0.2l-8.2-4.8v-0.2h-0.2l-8.4-4.8v-0.2l-8.8-4.8-3-1.6 17.2-31.8 3.2 1.8 0.2 0.2 8.8 5h0.2l8.8 5h0.2l8.6 5.2h0.2l1.8 1.2zM252.4 606.8l-12.2-11h-0.2l-14.4-13.2 24.2-26.6 14.4 13 12.2 10.8zM683.4 606.2l-2.8-1.4-19.4-9.8h-0.2l-9.4-4.6 15.4-32.4 9.8 4.8h0.2l19.8 9.8h0.2l0.2 0.2 2.6 1.4zM619.4 575.4l-20.2-9v-0.2l-12.6-5.4 14.6-33 12.6 5.6h0.2l20.2 9.2zM199.16 558l-3-2.6h-0.2v-0.2l-17.18-16.2v-0.2l-6.040-5.8 25.22-26 5.84 5.8 17.2 16.2 2.8 2.4zM553.8 546.4l-20.2-8.6-12.8-5.4 14-33.4 12.8 5.4 20.4 8.8zM487.6 518.4l-21.8-9.4-11.4-4.6 14-33.4 33.2 14zM857.2 504c-64 0-128-48-128-144l128-256 128 256c0 96-64 144-128 144zM421.2 490.4l-0.6-0.4h-0.2l-22.4-9.6h-0.2l-9.8-4.2 14.2-33.2 32.2 13.8h0.2l0.6 0.4zM354.8 462l-1.6-0.6v-0.4l-22-9.6v-0.2l-9.4-4.2 14.8-32.8 9.2 4.2 0.2 0.4 21.6 9.2 0.2 0.4 1.4 0.6zM288.8 432l-0.4-0.2h-0.2l-20.6-10h-0.2l-11.4-5.8 16.2-32.2 11 5.6 20.4 9.6 0.2 0.4h0.2zM857.2 424c35.346 0 64-28.654 64-64v0c0-35.346-28.654-64-64-64v0c-35.346 0-64 28.654-64 64v0c0 35.346 28.654 64 64 64v0zM223.6 399.4l-5.8-3v-0.4l-9.4-5v-0.2h-0.2l-9.24-5v-0.2l-7.36-4.2 18-31.2 7.2 4.2h0.2l8.8 5 9 5h0.2l5.6 3zM160.18 362l-4.86-3-0.2-0.2h-0.2l-7.9-5.4h-0.2l-0.2-0.2-7.68-5.4h-0.4l-7.42-5.6h-0.2l-0.2-0.2-1.78-1.2 21.76-28.8 1.66 1.4h0.2l7.040 5.2 7.96 5.2 7.56 5 0.2 0.2 4.52 2.8zM100.4 316.8l-3.62-3.4-0.4-0.4-5.8-5.6-0.4-0.4-5.52-5.6-0.2-0.4-0.2-0.2-5.22-5.6-0.2-0.2-0.2-0.4-4.66-5.4 27.46-23.4 4.5 5.4 4.76 5.2 5.16 5.4 5.5 5.4 3.42 3zM548.2 315l-4.2-0.2h-0.4l-4.2-0.2h-0.6l-2.8-0.4 3.2-35.8 2.6 0.4 3.8 0.2 3.4 0.2h3.6l7.2-0.4 6.8-0.8 3.8-0.6 6.2 35.4-4.4 0.8h-0.8l-4 0.6h-0.6l-4.2 0.4h-0.4l-4.2 0.2h-0.6l-4 0.2h-5zM497.4 307l-0.2-0.2h-0.4l-8.6-2.6-0.4-0.2h-0.2l-8.8-3-0.2-0.2h-0.4l-8.8-3.4-0.2-0.2h-0.2l-7.4-3 13.6-33.4 7.4 3 8.2 3.2 8 2.8 8.6 2.6-3.6 11.4-6 23.2zM616.6 296l-20.4-29.6 3-2.2 3.8-2.8 3.8-3.2 3.6-3.4 7.4-7.4 1.6-2 27.2 23.6-1.8 2-0.2 0.4-0.2 0.2-4 4.4-0.2 0.2-0.4 0.2-4 4.2-0.4 0.2-0.2 0.2-4.2 4-0.4 0.2-0.2 0.4-4.4 3.6-0.6 0.6-4.6 3.4-0.2 0.4-0.4 0.2zM427.6 278l-4.6-2.2-0.2-0.4-9-5h-0.2l-9-5.2h-0.2v-0.2l-9-5.2 18.2-31 9 5.2 8.6 5h0.2l8.4 4.6v0.4l4.6 2.2zM52.060 256l-0.22-0.2-0.2-0.4-2.88-6-0.2-0.4-0.2-0.6-2.52-6-0.2-0.6-0.2-0.4-2.14-6.4-0.2-0.2-0.2-0.8-1.78-6.2-0.4-1.2-1.38-6.2v-0.8l-0.5-3 35.48-6.2 0.46 2.8 1.16 5.2 1.48 5.4 1.8 5.2 2.14 5.2 2.7 5.6-16.1 7.6zM364.2 240.4l-14.4-9.4-0.2-0.2-15.6-10.4 20-30 15.6 10.4v0.2l14.2 9.4zM669.6 238l-30.2-19.6 2.8-4.4h0.2l6.8-11 6.8-11.2 1.8-3.2 31.2 18-2 3.2v0.2l-7 11.8-0.2 0.2-7 11.4-0.2 0.2zM304.2 200l-25-16.6-4.8-3.4 20-30 5 3.4v0.2h0.2l24.8 16.8zM74.6 181l-5.62-1.2-29.24-5.4v-0.8l0.7-3.4v-0.4l0.84-3.4v-0.6l0.92-3.4v-0.6l1.060-3.4v-0.4l1.18-3.4v-0.6l1.28-3.4 0.2-0.2v-0.2l1.4-3.6 0.4-0.4 1.5-3.4 0.2-0.4 0.2-0.2 2.92-6.2 32.44 15.6-2.76 5.8-1.28 3-1.26 3-1.040 2.8-1.060 3.2-0.88 2.8-0.78 2.8-0.72 3-0.6 2.8zM706.8 175.4l-31.2-18 0.6-1v-0.2h0.2l6.8-11.8 0.2-0.2 7-11.4v-0.2l0.2-0.2 4.2-6.6 30.2 19.4-4 6.4-6.8 11v0.2l-6.8 11.4v0.2zM244.8 160.4l-6.8-4.2h-0.2l-7.8-4.8v-0.2h-0.2l-7.8-4.6-7.4-4.2 17.8-31.4 7.6 4.4 0.2 0.2h0.2l8 4.8 0.2 0.2 8.2 5h0.2l6.8 4.4zM102.26 127.8l-24.56-26.4 1.62-1.4 0.3-0.2 0.32-0.4 2.48-2.2 0.32-0.2 0.34-0.2 2.52-2 0.34-0.2 0.36-0.4 2.58-1.8 0.72-0.4 2.62-1.6 0.38-0.4 0.4-0.2 2.66-1.4 0.4-0.2 0.38-0.2 2.72-1.4 0.4-0.2 0.42-0.2 2.76-1.2 0.4-0.2 0.42-0.2 2.8-1 0.42-0.2h0.42l2.84-1 0.42-0.2h0.42l2.88-0.8 0.42-0.2h0.4l2.94-0.6 7.84 35-2.56 0.6-2.040 0.6-2.020 0.6-2.020 0.8-1.96 0.8-1.9 1-1.86 1-1.92 1.2-1.86 1.4-1.8 1.4-1.9 1.6zM184.28 127.2l-6.1-2.6-6.7-2.6-6.44-2.2-6.18-1.8-5.84-1.2 8.3-35.2 6.24 1.6h0.44l0.42 0.2 7.020 2 0.38 0.2h0.36l7.16 2.4 0.34 0.2h0.32l7.28 2.8 0.3 0.2 0.28 0.2 6.3 2.6zM744.8 117.6l-27.8-22.6 0.8-1v-0.2l0.2-0.2 4-4.6 0.4-0.4 4.2-4.6 5-5 4.4-4.2 0.2-0.2 0.4-0.2 4.4-3.8 0.6-0.6 3.8-3 22.2 28.4-3.6 2.8-3.8 3.2-3.8 3.6-3.6 3.6-3.6 4-3.8 4.4zM793 82.6l-9-35 4-1h0.6l0.4-0.2 5.8-1 0.6-0.2h0.6l5.8-0.8h0.8l3-0.2h0.6l3-0.2h4.2l3.2 0.2h0.6l3.2 0.2h0.4l3.2 0.4h0.6l1.8 0.2-4.4 35.8-1.6-0.2-2.6-0.4h-2.6l-2.4-0.2h-2.6l-2.4 0.2h-2.2l-4.8 0.6-4.6 1z" />
<glyph unicode="&#xe908;" glyph-name="ninja-heroic-stance" d="M917.898 992.196c-42.46-91.022-124.392-27.426-189.78-25.208-184.928 1.6-190.508-94.704-282.592-154.034-18.378 20.040-47.548 32.76-93.476 30.234-31.856-1.752-60.686-12.68-81.948-31.79-24.68-21.476-42.67-51.098-43.884-79.68 42.060 10.632 82.608 8.77 91.742-10.92 23.016-49.626-42.74-31.922-89.49-46.794-2.496-0.792-4.944-1.62-7.368-2.45-5.514-15.466-12.048-30.262-12.048-40.964 0-33.89 27.372-12.32 39.296-41.76 1.7-4.198 7.556-17.25 24.476-33.666 2.734-2.656 92 70.228 94.974 67.8-29.67-63.2-77.574-85.48-82.254-87.95-42.474-22.404-93.452-40.84-111.382-76.26l-1.044 0.336s-55.16-130.85-67.018-195.816c1.15-33.494 51.344-25.090 51.344-25.090l79.054 23.57 9.372-33.88 238.964 301.254c-52.244 31.34-36.090 77.176-43.854 117.556 27.574 44.95 43.8 68.124 29.194 113.36 14.244 14.636 32.432 29.57 53.22 33.558 42.534 8.16 120.032-32.396 161.994-32.94 55.56-0.724 85.432 28.592 108.704 63.81-21.332-7.004-29.424-7-17.406 30.13-28.354-10.35-46.63-45.2-97.996-37.052-47.74 7.574-120.154 22.042-160.13 8.708 67.852 34.846 121.096 70.506 193.554 78.926 84.906-6.052 161.12-65.832 205.78 34.062zM680.338 718.44l-78.006-98.13 33.080-23.426 78.016 98.134zM269.32 715.126c-10.606 0-21.214-2.39-21.214-7.168 4.326-5.886 19.576-10.674 26.918-10.84 11.716 0 15.51 1.288 15.51 10.84 0 4.778-10.608 7.168-21.214 7.168zM551.048 620.814l-23.404-28.344 98.156-68.17 23.402 28.344zM542.202 548.846l-341.054-429.948s-20.494-16.85-0.1-33.546c20.94-17.14 37.244 7.308 37.244 7.308l341.048 429.95zM580.066 465.018s-41.374-53.69-62.44-80.24c-84.294-106.238-251.436-313.396-255.884-316.312l0.136-32.664h218.602l30.73 230.528 89.322-19.354s35.83-3.828 34.372 27.646c-9.252 43.536-38.456 149.728-54.84 190.396zM534.638 367.27l17.492-43.22-28.986 7.46z" />
<glyph unicode="&#xe909;" glyph-name="jigsaw-piece" d="M469.44 906.812c-1.506 0.016-3.028-0.020-4.564-0.060-10.18-0.294-21.096-1.94-32.75-5.064-124.324-33.32-77.848-179.724-27.94-189.44 9.926-1.928 30.2-59.546 10.814-95.936l-210.5-56.372 56.126-209.5c-9.32-37.912-69.22-43.576-102.876-16-26.080 21.384-137.966-18.806-109.56-124.816 28.4-106.008 153.214-66.366 161.5-23.812 2.032 10.49 57.020 49.464 90.81 15.688l56.25-209.876 229.188 61.44c58.92 28.88 11.448 71.7-28.752 86.874-31.8 11.974-53.108 129.82 53.688 158.434 10.010 2.684 19.352 3.94 28 4.064 83.58 1.22 103.99-107.032 74.124-133-8.27-7.19-26.792-86.38 31.688-73.752l10.624 3c-1.854-0.646-3.644-1.2-5.374-1.688l236.372 63.312-60.688 226.626c-28.756 36.276-84.37 9.846-99.374-30-11.986-31.82-101.376-49.036-130 57.748-28.624 106.78 64.968 121.984 98.5 94 28.52-23.81 102.41-23.614 80.75 60.94l10.876-36.19-52.314 195.186-277.5-74.376c-38.22 16.97-51.824 62.91-20.81 88.876 55.264 46.266 28.4 162.746-66.312 163.686zM744.688 95.688l-7.688-2.188 12.56 3.376c-1.674-0.466-3.306-0.85-4.872-1.188zM871.562 582.812c1.55-4.576 2.872-8.964 3.94-13.124l-3.94 13.124z" />
<glyph unicode="&#xe90a;" glyph-name="unlocking" d="M157.060 645.624c-47.686 0-87.86-42.728-100.56-101.186-8.432-11.080-13.5-24.87-13.5-39.752 0-15.012 5.12-28.934 13.688-40.060 12.95-57.926 52.97-100.128 100.374-100.128 48.586 0 89.44 44.346 101.314 104.5h211.564v-131.188h38.62v88.44h37.38v-88.44h40.184v50.19h37.376v-50.188h30.25v131.188h35.94v66.94h-430.38c-10.496 62.764-52.28 109.686-102.248 109.686zM848.88 621.44c-63.56 0-115.626-52.072-115.626-115.628 0-35.3 15.672-67.346 40.94-88.624l-59-170.688h266.246l-8.628 24.812-50.374 145.876c25.26 21.28 40.934 53.324 40.934 88.624 0 63.284-50.94 115.626-114.5 115.626zM848.88 584.060c43.234 0 77.124-34.744 77.124-78.248 0-28.004-14.114-52.234-35.75-66l-12.44-7.94 4.816-13.934 46.312-134.066h-161.322l51.192 148.002-12.44 7.94c-21.634 13.764-35.746 37.994-35.746 66 0 43.23 35.014 78.248 78.25 78.248zM108.94 533.25c16.006 0 28.626-12.56 28.626-28.56 0-16.006-12.62-28.564-28.62-28.564-16.006 0-28.564 12.56-28.564 28.56 0 16.006 12.56 28.564 28.56 28.564z" />
<glyph unicode="&#xe90b;" glyph-name="backpack" d="M372.876 984.88l-26.368-52.73c13.6 0.52 27.252 0.976 40.94 1.372l7.68 15.36h233.748l7.54-15.080c13.676-0.374 27.316-0.816 40.912-1.32l-26.204 52.4h-278.25zM511.996 899.396c-91.514-0.112-182.904-3.132-270.76-8.726-6.48-101.16-16.8-201.974-1.572-291.648 178.594-24.79 360.204-25.97 545.528 0.108 14.11 61.976 10.234 169.36-2.080 291.78-87.948 5.786-179.46 8.6-271.116 8.488zM819.562 888.316c12.84-128.24 18.226-239.65-2.27-310.44l-3.22-11.12-11.452-1.684c-197.6-29.056-391.226-27.62-581.21-0.004l-12.57 1.828-2.492 12.46c-19.78 98.98-8.17 205.57-1.328 308.84-9.78-0.708-19.53-1.44-29.204-2.214-17.192-117.136-18.78-233.914-0.1-350.584 220.48-24.176 444.55-24.41 672.406 0.020 17.004 115.66 16.58 232.5-0.034 350.626-9.45 0.8-18.97 1.552-28.524 2.28zM511.932 841.4c65.052 0.050 130.134-5.492 195.148-16.78l14.92-2.59v-15.144c0-31.108 3.366-70.21-25.38-100.5-19.824-20.888-51.31-34.674-102.62-41.17v-36.328h-164v36.904c-47.984 6.74-78.704 20.35-98.726 40.37-29.66 29.652-29.274 68.718-29.274 100.718v15.188l14.968 2.556c64.888 11.080 129.91 16.724 194.96 16.772zM511.956 805.412c-57.92-0.044-115.826-4.888-173.716-13.992 0.53-24.56 3.27-44.592 18.486-59.808 11.828-11.828 33.904-22.832 73.274-29.164v58.44h164v-59.020c42.734 6.23 65.32 17.51 76.508 29.3 14.066 14.82 15.392 35.004 15.46 60.248-58 9.26-116.012 14.040-174.014 13.996zM466 724.88v-60h92v60h-92zM885.348 540.040c-1.006-7.25-2.084-14.5-3.22-21.74 0.428-4.704 0.84-9.412 1.26-14.12l58.612-58.606v44.48l-56.652 49.99zM138.378 539.8l-56.378-49.746v-44.48l58.636 58.636c0.41 4.654 0.812 9.31 1.232 13.964-1.236 7.21-2.404 14.42-3.49 21.626zM847.646 499.006c-20.58-2.18-41.128-4.152-61.648-5.934v-148.19h32v-132h-32v-161.23c20.636 1.266 41.26 2.626 61.856 4.164 18.89 148.020 12.956 295.396-0.208 443.192zM176.494 498.946c-13.044-149.126-19.334-297.146-0.374-443.146 20.648-1.58 41.276-3.008 61.88-4.29v161.37h-32v132h32v148.048c-20.532 1.804-41.034 3.806-61.504 6.020zM749.998 490.146c-20.028-1.52-40.028-2.848-60-3.984v-141.28h60v145.264zM273.998 489.976v-145.094h60v141.1c-20.030 1.136-40.028 2.474-60 3.994zM653.998 484.326c-95.3-4.346-189.968-4.38-284-0.156v-38.628c47.9 10.33 95.6 15.304 143.032 15.18 47.276-0.12 94.29-5.308 140.968-15.252v38.86zM136.1 448.76l-54.1-54.1v-113.78h46.12c0.752 55.974 3.76 111.95 7.98 167.88zM887.996 448.666c4.24-55.744 7.22-111.66 7.914-167.784h46.090v113.78l-54.004 54.006zM512.956 424.766c-47.36 0.126-94.974-5.154-142.956-16.104v-63.78h32v-36.886c34.066-10.692 63.46-16.986 92-18.852v5.74h36v-5.736c28.54 1.864 57.934 8.16 92 18.85v36.882h32v63.732c-46.84 10.534-93.814 16.032-141.046 16.156zM242 308.884v-60h44v46h36v-46h44v60h-124zM658 308.884v-60h44v46h36v-46h44v60h-124zM402 270.4v-57.52h-32v-31.714c97.056-21.73 191.426-21.328 284-0.090v31.804h-32v57.52c-32.664-9.494-62.566-15.040-92-16.652v-22.866h-36v22.868c-29.434 1.612-59.336 7.16-92 16.652zM82 244.88v-28h46.28c-0.18 9.334-0.286 18.668-0.326 28h-45.954zM896.024 244.88c-0.054-9.326-0.166-18.66-0.36-28h46.336v28h-45.976zM274 212.88v-39.596c12.274-14.428 22.444-19.54 29.868-19.688 7.468-0.15 17.394 4.244 30.132 19.58v39.704h-12v-14h-36v14h-12zM690 212.88v-39.596c12.274-14.428 22.444-19.54 29.868-19.688 7.468-0.15 17.394 4.244 30.132 19.58v39.704h-12v-14h-36v14h-12zM82 180.88v-70.308c11.192-11.020 17.354-16.5 23.692-18.612 4.908-1.636 15.426-2.3 30.090-2.634-3.088 30.5-5.172 61.020-6.408 91.556h-47.374zM894.54 180.88c-1.256-30.448-3.348-60.966-6.42-91.56 14.716 0.336 25.27 1 30.188 2.64 6.34 2.112 12.5 7.59 23.692 18.612v70.308h-47.46zM370 144.316v-98.996c95.1-3.020 189.754-2.892 284 0.148v98.732c-92.632-20.060-187.48-20.37-284 0.114zM274 126.070v-76.636c20.020-1.080 40.020-2.016 60-2.816v79.356c-9.72-5.572-20.020-8.586-30.86-8.368-10.384 0.208-20.072 3.248-29.14 8.464zM690 126.070v-79.308c20.020 0.806 40.020 1.756 60 2.824v76.388c-9.72-5.572-20.020-8.586-30.86-8.368-10.384 0.208-20.072 3.248-29.14 8.464z" />
<glyph unicode="&#xe90c;" glyph-name="receive-money" d="M516 982.22c-1 0-2.4 0-3.6-0.24-9.2-1.7-20.2-10.2-27.4-29.62-7.6-19.4-9.2-47.060-2.6-76.68 6.8-29.26 20.8-54.48 36.4-69.88 15.2-15.4 29-19.6 38.2-18 9.6 1.4 20.2 10.2 27.4 29.4 7.6 19.28 9.6 47.32 2.8 76.7-7 29.6-20.8 54.58-36.4 69.88-13.2 13.6-25.4 18.44-34.8 18.44zM746.8 723.2c-22-0.6-49.8-6.4-76.8-17.8-31.2-13.6-55.2-31.8-68.4-49-13.2-16.6-14.4-29.2-10.2-36.6 4.4-7.4 16.6-14.4 40-15.4 23.4-1.4 55 4.4 86 17.6 31 13.4 55.4 31.8 68.6 48.6 13.2 16.6 14.2 29.6 10 37-4.2 7.6-16.6 14.2-40 15-3.2 0.6-6 0.6-9.2 0.6zM474.2 537.4c-13.2-0.2-25.2-1.8-36-4.6-23.6-6-37.2-16.8-41.6-29.8-5-13 0-28.6 15.6-45.4 16.4-16.4 43.4-32.2 77-41 33.4-8.8 65.6-8.6 89.6-2.2 24.2 6.2 37.8 17.2 42.2 30 4.6 13 0 28.4-16.2 45.4-15.8 16.4-42.8 32.2-76.4 40.8-19 5-37.6 7-54.2 6.8zM795.6 421.2l-123.6-58.6c8.4-0.4 29.4-1 29.4-1l13.2-17.4 109.4 57-28.4 20zM686.6 421l-114.8-54.4c11-0.6 37-1 47.4-1.6l99.6 47.2-32.2 8.8zM871.8 399.4l-141-74.8 29-37.4 149 89.2-37 23zM314.2 381.2c-0.044 0-0.097 0-0.149 0-6.329 0-12.487-0.729-18.396-2.107l0.545 0.107c-143-33-227.4-35.8-252.4-35.8h-7.8v-215s23.2 3.4 61.8 3.6c74.6 0 206-12.8 334-87.6 6.8-4.2 21.4-5.8 39.6-5.8 48.6 0 122.4 11.6 139.4 18 171.2 64.2 377.2 240.4 377.2 240.4l-65 56.8s-159.6-101.8-179.8-111.6c-182.2-89.4-329.8-33.6-329.8-33.6s239.8-6 316.8 54.6l-45.2 68s-165.6 4.6-224.6 12.4c-30.8 4-97.4 37.6-146.2 37.6z" />
<glyph unicode="&#xe90d;" glyph-name="pay-money" d="M597.8 977.38c-29.8-0.6-51.2-6.4-65.4-16.8l-194.6-104.2-108.2-147.18c-22.8-35.2-6.6-103.2 64.6-59.6l78 102.8c99 85.38 301 46.2 205.2-125.2-47-99.2-25-147.6 35.6-168l27.6 92.8c47.8 107.6 137 127 133.4 213.8l214.4-15.4-2 224.18-388.6 2.8zM489.6 770.6c-34.8 0.6-69-13.8-93.8-34.6l-78.2-102.8c21.4-17 43-7.8 64.4 12.8 25.2-12.8 44.8 7 60.8 46.6 6.6 27 16.4 46 46.8 78zM330.4 578.6c-0.8 0-1.8 0-2.6-0.2-6.6-1.4-14.4-8.4-19.6-24.4-5.4-16-6.6-38.8-1.8-63.2 4.8-24.2 14.8-44.8 26-57.6 10.8-12.6 20.8-16.2 27.4-14.8 6.8 1.2 14.4 8.4 19.6 24.2 5.4 16 6.8 39 2 63.2-5 24.4-15 45-26 57.6-9.6 11.2-18.4 15.2-25 15.2zM495.6 365c-15.8-0.2-35.6-5.2-55-14.6-22.2-11-39.6-26.2-49-40.2-9.4-13.8-10.2-24.2-7.2-30.4 3-6 11.8-11.8 28.6-12.6 16.8-1 39.4 3.6 61.6 14.6s39.6 26 49 40c9.4 13.8 10.2 24.4 7.2 30.4-3 6.2-11.8 11.8-28.6 12.6-2.2 0.2-4.2 0.2-6.6 0.2zM300.4 173.8c-9.4-0.2-18-1.6-25.6-3.8-17-5-26.8-14-30-24.6-3.4-10.8 0-23.6 11.4-37.4 11.6-13.6 31-26.6 55-33.8 23.8-7.2 47-7 64.2-1.8 17.2 5 27 14 30.2 24.6 3.2 10.8 0 23.6-11.6 37.4-11.4 13.6-30.8 26.6-54.8 33.8-13.6 4-26.8 5.8-38.8 5.6z" />
<glyph unicode="&#xe90e;" glyph-name="fountain-pen" d="M36 984.374v-248.124c58.288-51.046 114.74-98.928 168.75-143.126 10.046 3.788 29.924 15.6 51.376 32.376 23.6 18.46 50.36 42.62 75.75 68.060 25.386 25.448 49.46 52.23 67.812 75.752 16.81 21.55 28.594 41.472 32.188 51.126-42.868 52.554-89.226 107.412-138.626 163.936h-257.25zM458.060 788.062c-7.264-12.95-17.166-26.66-28.936-41.748-19.624-25.156-44.516-52.77-70.812-79.124-26.294-26.356-53.934-51.374-79.188-71.126-15.148-11.846-28.96-21.856-42.060-29.186 16.092-12.96 32.026-25.57 47.624-37.812l-0.94 3.5c7.59 2.036 27.58 13.476 49.19 30.38 21.608 16.9 46.152 39.1 69.436 62.436 23.28 23.336 45.38 47.896 62.186 69.436 16.11 20.65 27.16 39.72 29.752 47.626-11.734 14.972-23.86 30.19-36.25 45.62zM520.060 709.19c-6.66-11.68-15.554-23.908-26.060-37.376-18.080-23.174-40.996-48.628-65.188-72.874-24.19-24.25-49.61-47.244-72.874-65.44-14.764-11.546-28.116-21.252-40.88-28.126 14.7-11.324 29.194-22.33 43.38-32.936 9.52 4.732 24.32 13.986 40 26.248 21.024 16.444 44.894 38.032 67.56 60.75 22.666 22.714 44.15 46.6 60.5 67.56 12.1 15.51 21.24 30.144 25.94 39.5-10.44 13.964-21.254 28.212-32.38 42.688zM573.376 627.564c-5.072-7.486-10.924-15.288-17.376-23.56-17.624-22.592-39.928-47.374-63.5-71s-48.384-46.012-71.060-63.75c-8.12-6.348-15.8-12.092-23.19-17.126l188.56-282.56c87.514 15.5 210.796-33.788 317.19-132.126l28.876 28.872-238.688 238.686c-22.068-10.968-49.55-7.326-67.94 11.060-23.034 23.040-23.034 60.404 0 83.44 23.040 23.036 60.404 23.036 83.44 0 18.436-18.436 22.076-46.028 11-68.126l238.624-238.624 28.94 28.94c-98.34 106.392-147.694 229.612-132.19 317.12l-282.682 188.754z" />
<glyph unicode="&#xe90f;" glyph-name="newspaper" d="M82 892.18v-697.78c173-2 295-29.6 412-58.6v607.4c-90.6 60.2-180.8 117.5-412 148.98zM942 892.18c-231.2-31.48-321.4-88.78-412-148.98v-607.4c117 29 239 56.6 412 58.6zM900.2 838.98l1.6-133.98c-118.8-35.2-229-75.8-337.8-112-0.8 41.8-1.4 83.4-2.2 125.2 105.6 58.4 222.4 96.2 338.4 120.78zM138.020 815.4c121.58-28.2 230.18-61.4 314.18-89.6l0.4-38c-83.2 27.8-202.6 64.6-322.7 92.6zM138.26 722.2l71.94-13-6.4-35.6-71.94 13zM246.6 699.6l65-12.4-6.8-35.2-65 12.4zM353 678.6l99.2-19.2-6.8-35.2-99.2 19.2zM879.2 638.8l10.4-34.4-112-33.8-10.4 34.4zM123.84 629.4c114.56-13.4 228.16-27.8 323.76-53.4l-9.2-34.8c-92 24.8-204.4 39.2-318.76 52.6zM714.2 594l9.6-34.8-143.4-39.6-9.6 34.8zM887 552l9.6-34.8-65.6-18.2-9.6 34.8zM130.4 548.8l99.8-10.4-4-36-99.6 10.8zM284.2 529.2l164.2-24.6-5.2-35.6-164.2 24.6zM781.2 521.8l9.6-34.8-213.8-59-9.6 34.8zM892.8 476l9.2-34.8-205-53.2-9.2 34.8zM116.68 463.2c59.68-6.2 123.92-15 168.92-26v-222l-167.2 14.8c-0.66 77.8-0.96 155.4-1.72 233.2zM325.8 433.8l123-15-4.4-35.6-123 15zM648.8 410.2l8.4-35-75.6-18.2-8.4 35zM907 402l0.8-164.4-157-20.4c-0.6 47.6-0.8 95.4-1.4 143zM328 357.2l119.6-19.6-6-35.6-119.6 19.6zM871.4 355.2l-85.6-22.6 0.6-74.6 85.4 11.2zM708.6 335.6l6.8-35.2-137.8-26.2-6.8 35.2zM326.4 277.4l125.2-24.8-6.8-35.2-125.2 24.8zM699.6 263.8l8-35.2-125-27.8-8 35.2z" />
<glyph unicode="&#xe910;" glyph-name="lightning-tear" d="M522.188 993.94l-37.376-0.064 0.126-66.564c-31.9-1.28-63.708-6.29-95.19-15.060l-20.44 66.56-35.748-10.936 20.69-67.188c-24.992-9.272-49.734-20.88-74.060-34.876l-38.252 61-31.628-19.812 38.126-60.94c-21.36-14.3-42.32-30.44-62.88-48.436l-51.742 48.128-25.5-27.376 49.75-46.248c-4.93-4.812-9.874-9.66-14.748-14.688l-12.56-13 12.56-13c108.934-112.466 233.016-170.194 357.812-170.19 124.8 0.004 248.86 57.74 357.814 170.188l12.56 13-12.56 13c-4.76 4.91-9.564 9.67-14.38 14.372l50 46.56-25.434 27.38-52.064-48.44c-18.3 16.048-36.924 30.63-55.872 43.75l38.624 61.564-31.624 19.876-38.376-61.188c-25.646 15.33-51.776 28.014-78.188 38.060l20.626 67.066-35.75 10.936-20.312-66.126c-31.026 8.934-62.42 14.164-93.876 15.812l-0.124 66.88zM501.060 885.5c78.294 0 141.38-63.020 141.38-141.312s-63.086-141.376-141.38-141.376c-78.29 0-141.31 63.084-141.31 141.376 0 78.29 63.020 141.312 141.312 141.312zM630.44 867.374c64.754-23.128 128.32-63.91 188.56-122.936-60.030-58.804-123.366-99.514-187.876-122.69 30.16 32.020 48.688 75.124 48.688 122.44 0 47.676-18.8 91.090-49.374 123.186zM371.624 867.314c-30.54-32.090-49.312-75.48-49.312-123.126 0-47.28 18.5-90.36 48.626-122.376-64.436 23.192-127.674 63.888-187.628 122.626 60.184 58.948 123.646 99.726 188.312 122.872zM501.124 845.688c-55.98 0-101.374-45.392-101.374-101.376 0-55.98 45.392-101.312 101.376-101.312 55.98 0 101.374 45.334 101.374 101.312 0 55.984-45.392 101.376-101.376 101.376zM658.874 552.876c-51.768-18.234-104.74-27.44-157.75-27.44-33.706 0-67.38 3.794-100.75 11.19l119.188-102.25-187.372-5 506.87-387.752-171.62 288.75 143.060 1.436-151.626 221.060z" />
<glyph unicode="&#xe911;" glyph-name="breaking-chain" d="M129.492 990l41.976-42c11.847-11.927 19.169-28.362 19.169-46.507 0-30.772-21.059-56.625-49.552-63.934l-0.457-0.1 36.96-36.96c36.61 19.464 61.114 57.366 61.114 100.99 0 31.43-12.719 59.89-33.292 80.512l-8.002 7.998h-67.916zM104.79 969.22c-36.631-19.361-61.168-57.216-61.168-100.801 0-31.413 12.745-59.848 33.347-80.418l176.001-175.881c2.115 19.514 7.433 37.336 15.437 53.597l-0.417-0.937-157.082 157.22c-11.858 11.89-19.19 28.299-19.19 46.42 0 18.181 7.38 34.638 19.308 46.539l0.001 0.001c8.055 8.423 18.545 14.457 30.337 16.971l0.387 0.069-36.96 37.22zM269.73 917.66c0.508-4.614 0.8-9.28 0.88-14 0.013-0.72 0.020-1.569 0.020-2.419 0-16.172-2.627-31.731-7.478-46.272l0.298 1.031 145.64-145.64c11.776-11.915 19.050-28.301 19.050-46.386 0-35.8-28.504-64.943-64.055-65.972l-0.095-0.002c-0.070-0.978-0.111-2.119-0.111-3.27 0-13.39 5.439-25.509 14.229-34.269l8.001-8.001c51.943 11.346 90.259 56.949 90.259 111.501 0 31.425-12.715 59.881-33.282 80.502l-173.357 173.197zM543.028 867.876l-1.84-97.724 47.992-0.906 1.84 97.722-47.992 0.908zM707.024 844.89l-55.324-90.348 40.936-25.066 55.32 90.348-40.932 25.066zM827.058 737.114l-89.42-41.488 20.2-43.544 89.424 41.488-20.204 43.544zM361.79 712.3c-12.427-5.302-23.136-11.963-32.649-19.996l0.189 0.156c-2.938-2.462-5.584-4.887-8.121-7.421l0.001 0.001c-23.127-23.184-37.428-55.183-37.428-90.522 0-30.845 10.895-59.145 29.047-81.263l-0.179 0.224c2.898-3.539 5.775-6.714 8.8-9.74l184.3-184.3c7.967-7.969 16.973-14.898 26.798-20.569l0.622-0.331c-8.672 18.15-13.738 39.448-13.738 61.93 0 4.496 0.203 8.944 0.599 13.336l-0.041-0.566-164.54 164.54c-1.905 1.875-3.709 3.831-5.415 5.871l-0.105 0.129c-1.562 1.897-3.134 4.015-4.599 6.212l-0.181 0.288c-8.385 12.453-13.384 27.792-13.384 44.299 0 22.068 8.935 42.049 23.385 56.522l-0.001-0.001c1.6 1.6 3.26 3.1 4.96 4.52 9.652 8.185 21.434 14.164 34.391 17.003l0.529 0.097c-1.618 5.898-4.627 10.961-8.66 15v0l-24.58 24.58zM504.47 696.74c2.377-9.9 3.739-21.265 3.739-32.95 0-6.717-0.45-13.329-1.323-19.807l0.083 0.756 34.78-12.74c2.809-1.248 6.085-1.974 9.532-1.974 13.255 0 24 10.745 24 24 0 10.754-7.073 19.857-16.822 22.908l-0.17 0.046v-0.060l-53.82 19.82zM779.89 592.668l-1.456-47.976 91.276-2.774 1.458 47.976-91.278 2.774zM657.594 570.968c-0.024 0-0.053 0-0.082 0-13.255 0-24-10.745-24-24 0-2.915 0.52-5.71 1.472-8.295l-0.054 0.166 36.74-101.040c3.011-8.103 4.754-17.464 4.754-27.232 0-22.241-9.033-42.373-23.632-56.926l-0.182-0.182c-4.442-4.44-9.398-8.366-14.771-11.68l-0.349-0.2c1.19-1.723 2.446-3.233 3.823-4.623l30.277-30.277c5.53 4.082 10.413 8.293 14.96 12.84l0.18 0.18c23.26 23.261 37.646 55.395 37.646 90.889 0 15.666-2.803 30.678-7.934 44.561l0.288-0.89-36.84 101.14c-1.157 3.14-2.835 5.835-4.954 8.115l0.014-0.015c-3.84 4.016-9.038 6.706-14.854 7.331l-0.106 0.009c-0.715 0.079-1.548 0.125-2.392 0.128h-0.004zM626.71 467.5c-44.074-16.429-74.896-58.157-74.896-107.084 0-31.384 12.682-59.806 33.201-80.421l170.576-170.576c-0.487 4.598-0.764 9.932-0.764 15.332 0 16.449 2.576 32.296 7.347 47.16l-0.303-1.091v0.1l-143.020 143.020c-11.865 11.93-19.199 28.377-19.199 46.537 0 27.511 16.833 51.091 40.761 61.002l0.438 0.161c0 0.2-0.12 0.42-0.2 0.62l0.5-0.5c1.32 0.52 2.66 1 4 1.44 0.008 0.066 0.013 0.142 0.013 0.22s-0.005 0.154-0.014 0.229l0.001-0.009c-0.84-0.28-1.7-0.54-2.54-0.84-0.2 1.2-0.62 2.62-1.080 3.94l-14.82 40.76zM754.97 432.5l-0.12-0.12c0.932-6.474 1.464-13.949 1.464-21.549 0-0.419-0.002-0.837-0.005-1.255v0.064c-0.136-7.403-0.677-14.531-1.603-21.536l0.103 0.956c-1.042-7.846-2.442-14.715-4.262-21.412l0.262 1.132 166.4-166.4c11.866-11.931 19.201-28.378 19.201-46.539 0-30.783-21.075-56.645-49.584-63.942l-0.457-0.099 36.96-36.96c36.601 19.467 61.098 57.364 61.098 100.982 0 31.424-12.715 59.879-33.28 80.5l-196.178 196.178zM845.030 229.3c-10.649-5.574-19.779-12.368-27.69-20.37l-0.010-0.010c-20.606-20.641-33.348-49.137-33.348-80.61 0-31.413 12.694-59.861 33.233-80.494l-0.004 0.004 9.8-9.82h67.83l-43.75 43.76c-11.859 11.929-19.189 28.372-19.189 46.527 0 30.801 21.099 56.674 49.632 63.955l0.457 0.099-36.96 36.96z" />
<glyph unicode="&#xe912;" glyph-name="eye" d="M512 768c-223.318 0-416.882-130.042-512-320 95.118-189.958 288.682-320 512-320 223.312 0 416.876 130.042 512 320-95.116 189.958-288.688 320-512 320zM764.45 598.296c60.162-38.374 111.142-89.774 149.434-150.296-38.292-60.522-89.274-111.922-149.436-150.296-75.594-48.218-162.89-73.704-252.448-73.704-89.56 0-176.858 25.486-252.452 73.704-60.158 38.372-111.138 89.772-149.432 150.296 38.292 60.524 89.274 111.924 149.434 150.296 3.918 2.5 7.876 4.922 11.86 7.3-9.96-27.328-15.41-56.822-15.41-87.596 0-141.382 114.616-256 256-256 141.382 0 256 114.618 256 256 0 30.774-5.452 60.268-15.408 87.598 3.978-2.378 7.938-4.802 11.858-7.302v0zM512 544c0-53.020-42.98-96-96-96s-96 42.98-96 96 42.98 96 96 96 96-42.982 96-96z" />
<glyph unicode="&#xe913;" glyph-name="archive-research" d="M335.4 766.8c-2.4 0-5 0-7.4-0.2-67.8-1.6-151-21.4-254.6-67.4v-486.8c121.6 57.6 213.4 74.2 288.4 66.2 27.4-2.8 52.6-9 75.8-17.2l-90.2 157.6c-17.2-7-35.8-11-55.4-11-80.42 0-146 65.6-146 146s65.58 146 146 146c80.4 0 146-65.6 146-146 0-48-23.4-90.6-59.4-117.4l114.6-200c12.4-6.4 24.2-13.4 35.8-20.4v486c-46.4 35.4-100.4 60-172 64-7 0.4-14.2 0.6-21.6 0.6zM759.4 766.8c-7.4 0-14.8-0.2-21.8-0.6-71.6-4-125.4-28.6-172-64v-486c47.8 29.2 100.2 55.4 167.2 62.4 75 8 167-8.6 288.4-66.2v486.8c-103.4 46-186.6 65.8-254.4 67.4-2.6 0-5 0.2-7.4 0.2zM292 664c-60.96 0-110-49-110-110s49.040-110 110-110c61 0 110 49 110 110s-49 110-110 110zM296.6 636.2h5.6c-48.2-36.4-69.56-84.2-66.74-140.4-52.12 77.6 2.54 138.8 61.14 140.4zM322.8 243.2c-64-0.6-143.6-19.6-249.4-72v-85c121.6 57.6 213.4 74.2 288.4 66.2 37.2-4 69.8-13.8 99.6-26.6-9.4-12.2-18.6-26.6-27.8-43.4h106.6l-72 125.4c-33.2 16.6-68.6 29.2-110.2 33.6-11.2 1.2-23 1.8-35.2 1.8zM764.6 243.2c-9.6-0.2-18.8-0.8-27.8-1.8-68-7.2-119.2-36-171.2-68.8v-0.6c-12.2 3.8-24.6 4.6-36.6 2.4l52.6-92h86.4c-12 16.4-23.6 30.8-35.4 43.2 30 13 62.8 22.8 100.2 26.8 75 8 167-8.6 288.4-66.2v85c-106.2 52.6-186.2 71.8-250.4 72h-6.2z" />
<glyph unicode="&#xe914;" glyph-name="choice" d="M836 888c-96.4 0-174-77.68-174-174 0-96.4 77.6-174 174-174s174 77.6 174 174c0 96.32-77.6 174-174 174zM917 819.98l30-19.96-140.2-210.22-111.6 111.4 25.6 25.6 80.4-80.6 115.8 173.78zM645.4 625.8l-236.6-163.8h-308.8v-72h308.8l236.6-163.8c10.2 22 24.2 42 41 59l-203.2 140.8 203.2 140.8c-16.8 17-30.8 37-41 59zM836 312c-96.4 0-174-77.6-174-174s77.6-174 174-174 174 77.6 174 174-77.6 174-174 174zM752.8 246.8l83.2-83.2 83.2 83.2 25.6-25.6-83.2-83.2 83.2-83.2-25.6-25.6-83.2 83.2-83.2-83.2-25.6 25.6 83.2 83.2-83.2 83.2 25.6 25.6z" />
<glyph unicode="&#xe915;" glyph-name="hazard-sign" d="M509.94 890.5c-60.96 0.334-118.040-44.24-159.064-124.312-0.15-0.292-0.352-0.52-0.5-0.812l-264.69-459.628c-48.686-76.574-58.932-148.778-28.746-201.808 30.16-52.996 97.254-80.252 187-75.816h530.186c89.774-4.454 156.89 22.808 187.060 75.814 30.18 53.020 19.912 125.19-28.75 201.748l-0.44 0.75-261.436 457.436c-0.12 0.24-0.248 0.45-0.372 0.688-41.896 80.526-99.252 125.606-160.25 125.94zM510.060 852.812c27.152-0.26 52.906-13.86 76.252-36.686 23.212-22.694 45.108-54.906 66.812-96.688 0.126-0.244 0.25-0.448 0.376-0.69l230.44-403.126c0.066-0.106 0.116-0.204 0.184-0.312l0.25-0.44c25.84-40.548 42.79-76.12 50.564-107.934 7.82-32.020 6.126-61.296-7.69-84.816s-38.444-39.066-69.56-47.812c-30.888-8.68-69.016-11.312-114.816-9h-467.622c-49.69-2.516-89.46 0.64-120.81 10.25-31.56 9.68-55.36 26.9-67.44 51.38-12.080 24.474-11.724 53.594-3 84.872 8.666 31.070 25.63 65.216 49.75 103.060l0.44 0.754 232.934 404.376c0.16 0.314 0.34 0.56 0.5 0.876 21.396 41.836 43.016 73.924 66.126 96.372 23.284 22.614 49.16 35.826 76.312 35.56zM605.374 728.626l-57.060-448.064h-83.688l-55.75 438.438c-2.808-5.112-5.62-10.41-8.44-15.94l-0.186-0.436-0.25-0.436-234.314-406.688c-23.126-36.192-38.49-67.952-45.686-93.75-7.196-25.8-6.216-44.644 0.5-58.25s19.85-24.56 44.94-32.25c25.084-7.69 61.34-11.094 108.81-8.626l0.5 0.064 469.126-0.060c43.7-2.276 78.616 0.56 103.75 7.62 25.132 7.066 39.644 17.654 47.374 30.814s9.956 31.090 3.626 57c-6.332 25.916-21.464 58.748-46.188 97.44l-0.252 0.376-0.25 0.436-231.63 405.25c-5 9.656-9.98 18.652-14.94 27.064zM462.56 236.25h87.814v-87.812h-87.814v87.81z" />
<glyph unicode="&#xe916;" glyph-name="help" d="M512 928c-265.1 0-480-214.9-480-480s214.9-480 480-480 480 214.9 480 480-214.9 480-480 480zM512 808c198.82 0 360-161.18 360-360s-161.18-360-360-360-360 161.18-360 360 161.18 360 360 360zM512 748c-132.548 0-240-80.588-240-180 0-60 120-60 120 0 0 33.14 53.724 60 120 60s120-26.86 120-60-60-30-120-60c-3.75-1.876-6.956-4.252-9.376-6.56-49.564-31.412-50.624-85.292-50.624-113.44v-30c0-33.24 26.76-60 60-60s60 26.76 60 60v30c0 90 180 80.588 180 180s-107.452 180-240 180zM512 268c-33.137 0-60-26.863-60-60v0c0-33.137 26.863-60 60-60v0c33.137 0 60 26.863 60 60v0c0 33.137-26.863 60-60 60v0z" />
<glyph unicode="&#xe917;" glyph-name="info" d="M512 918c-259.148 0-470-210.852-470-470s210.852-470 470-470 470 210.852 470 470-210.852 470-470 470zM512 846c220.236 0 398-177.764 398-398s-177.764-398-398-398-398 177.764-398 398 177.764 398 398 398zM497.296 772.512c-16.454 0-30.634-5.952-42.54-17.856-11.552-11.904-17.33-25.91-17.33-42.016 0-16.454 5.78-30.46 17.332-42.012 11.9-11.552 26.080-17.332 42.536-17.332s30.46 5.78 42.012 17.332c11.554 11.554 17.332 25.56 17.332 42.012 0 16.106-5.952 30.112-17.854 42.016-11.554 11.904-25.384 17.856-41.49 17.856zM371.782 607.606v-56.192h92.43v-372.26h-92.432v-55.666h280.44v55.668h-91.38v428.45h-189.060z" />
<glyph unicode="&#xe918;" glyph-name="recycle" d="M511.75 920.5c-31.080-0.672-60.888-8.386-89.94-21l44.94-84c14.84 5.304 30.046 8.884 45 9 51.266 0 105.508-27.316 146.94-98.94l33.248-57.748 40.434 23.312 86.814-150.374-107-61.688 215.624-124.372v248.686l-66.124-38.126-119 208.312c-54.952 95.012-142.14 147.696-230.94 146.94zM361.31 804.812l-215.684-124.372 64.564-37.19-112.312-196.626c-50.306-87.016-53.868-185.654-12-263.936 17.35-32.44 43.676-59.016 75-80.94l48 80.94c-16.084 12.72-29.8 27.824-39 45-25.020 46.804-26.644 109.28 9 170.94l27.248 46.872-39.374 22.75 86.626 150.060 107.936-62.186v248.688zM871.624 269.688c-3.128-15.374-7.67-28.724-15-42-25.66-46.412-76-81-155.936-81h-48.876v-45.812h-173.56v124.124l-215.632-124.312 215.626-124.376v74.44h222.44c109.040 0 197.012 51.296 239.934 128.936 15.132 27.39 23.476 58.484 27 90h-96z" />
<glyph unicode="&#xe919;" glyph-name="play" d="M213.708 747.996c-28.593-0.17-51.707-23.388-51.707-52.005 0-2.343 0.155-4.651 0.455-6.912l-0.029 0.265c32-248 32-234.688 0-482.688-0.271-1.996-0.426-4.303-0.426-6.646 0-28.722 23.284-52.006 52.006-52.006 7.207 0 14.072 1.466 20.313 4.116l-0.341-0.128 596 248c18.956 8.046 32.010 26.502 32.010 48.008s-13.053 39.962-31.669 47.879l-0.34 0.129-596 248c-5.901 2.522-12.766 3.989-19.974 3.989-0.105 0-0.209 0-0.314-0.001h0.016z" />
<glyph unicode="&#xe91a;" glyph-name="menu-dots" d="M559.003 703.999c0-32.585-26.415-59-59-59s-59 26.415-59 59c0 32.585 26.415 59 59 59s59-26.415 59-59zM559.003 447.997c0-32.585-26.415-59-59-59s-59 26.415-59 59c0 32.585 26.415 59 59 59s59-26.415 59-59zM559.003 191.996c0-32.585-26.415-59-59-59s-59 26.415-59 59c0 32.585 26.415 59 59 59s59-26.415 59-59z" />
<glyph unicode="&#xe91b;" glyph-name="settings" d="M174 896v-142h36v142h-36zM494 896v-690h36v690h-36zM814 896v-334h36v334h-36zM100 718c-10.28 0-18-7.8-18-18v-56c0-10.2 7.72-18 18-18h184c10.2 0 18 7.8 18 18v56c0 10.2-7.8 18-18 18h-184zM174 590v-590h36v590h-36zM740 526c-10.2 0-18-7.8-18-18v-56c0-10.2 7.8-18 18-18h184c10.2 0 18 7.8 18 18v56c0 10.2-7.8 18-18 18h-184zM814 398v-398h36v398h-36zM420 170c-10.2 0-18-7.8-18-18v-56c0-10.2 7.8-18 18-18h184c10.2 0 18 7.8 18 18v56c0 10.2-7.8 18-18 18h-184zM494 42v-42h36v42h-36z" />
<glyph unicode="&#xe91c;" glyph-name="add" d="M450.002 847.999h100.001v-800.004h-100.001v800.004zM113.001 509.998h800.004v-100.001h-800.004v100.001z" />
<glyph unicode="&#xe91d;" glyph-name="hidden" d="M811.644 802.202l48.888-48.888-659.562-659.514-48.89 48.886zM336.64 448.646c0.025 96.857 78.548 175.365 175.408 175.365 21.151 0 41.427-3.744 60.203-10.604l-1.219 0.389 86.804 86.804c-43.055 14.269-92.617 22.499-144.103 22.499-0.609 0-1.219-0.001-1.828-0.003h0.094c-60.753-0.171-118.783-11.615-172.177-32.349l3.269 1.117c-30.297-11.719-55.887-24.213-80.256-38.56l2.534 1.38c-26.548-15.587-49.29-31.323-70.793-48.541l1.161 0.899c-21.481-17.088-40.676-34.435-58.734-52.899l-0.112-0.115c-15.553-15.706-30.386-32.233-44.384-49.467l-0.978-1.243-8.92-11.108-7.86-10.534c-4.886-6.408-9.036-12.448-12.4-17.356-3.366-4.91-5.948-9.082-7.7-11.71l-2.65-4.126 2.65-4.126c1.752-2.65 4.334-6.914 7.7-11.708 3.364-4.796 7.514-10.95 12.4-17.358l7.86-10.532 8.92-11.11c14.975-18.477 29.808-35.005 45.414-50.765l-0.054 0.055c18.171-18.579 37.366-35.926 57.586-52.042l1.262-0.972q14.29-11.34 29.64-22.036l121.472 121.472c-6.47 17.534-10.212 37.785-10.212 58.91 0 0.132 0 0.263 0 0.395v-0.020zM969.374 452.818c-1.752 2.674-4.332 7.030-7.7 11.778-3.364 4.748-7.512 11.018-12.4 17.472-4.886 6.914-10.51 13.99-16.78 21.734-15.001 18.572-29.834 35.167-45.439 50.999l0.079-0.081c-18.177 18.628-37.373 36.012-57.596 52.163l-1.25 0.965c-9.91 7.945-21.368 16.457-33.123 24.569l-2.051 1.339-118.75-118.75c8.245-19.621 13.036-42.427 13.036-66.352 0-96.862-78.522-175.384-175.384-175.384-23.925 0-46.73 4.79-67.51 13.464l1.159-0.429-86.62-86.62c45.59-16.012 98.156-25.34 152.877-25.512h0.079c0.486-0.002 1.060-0.003 1.635-0.003 60.109 0 117.603 11.196 170.51 31.617l-3.237-1.099c30.286 11.665 55.879 24.131 80.245 38.46l-2.523-1.372c26.54 15.559 49.283 31.296 70.774 48.53l-1.142-0.886c21.473 17.116 40.669 34.5 58.723 53.002l0.123 0.126c15.526 15.751 30.361 32.345 44.362 49.64l1 1.276c6.292 7.768 11.894 14.914 16.78 21.736 4.886 6.454 9.036 12.494 12.4 17.472 3.366 4.98 5.948 9.22 7.7 11.78l2.65 4.166z" />
<glyph unicode="&#xe91e;" glyph-name="multi-author" d="M507.6 899.12c-19-2.4-36.2-24.6-36.2-53.6 0-16 5.4-30 13.4-39.8l9.8-11.6-15-2.8c-10.4-2-18-7.6-24.6-16.6-6.8-9.2-11.8-21.52-15.2-36.12-6.4-26.2-7.8-58.2-8-86.6h35l3.2-43.8c13.6 0.6 27.6 1 41.8 1 15 0 29.6-0.4 43.8-1.2l3 44h33.2c0 28.6-0.4 61.2-6.2 87.8-3.2 14.4-8 26.92-14.6 35.92s-14.8 14.4-26.6 16.2l-15.2 2.4 9.6 12c7.8 9.6 13 23.6 13 39.2 0 30.8-19.2 53.6-40.2 53.6zM123.8 611.2c-19-2.4-36.2-24.6-36.2-53.6 0-16 5.4-30 13.4-39.8l9.8-11.6-15-2.8c-10.4-2-18-7.6-24.6-16.6-6.8-9.2-11.8-21.6-15.2-36.2-6.4-26.2-7.8-58.2-8-86.6h35l9.4-128.6c24.4-5.6 50.4-5.2 73.88 0l8.6 128.6h33.12c0 28.6-0.4 61.2-6.2 87.8-3.14 14.4-7.94 27-14.54 36-6.58 9-14.78 14.4-26.58 16.2l-15.28 2.4 9.6 12c7.88 9.6 13.080 23.6 13.080 39.2 0 30.8-19.28 53.6-40.28 53.6zM891.8 611.2c-19-2.4-36.2-24.6-36.2-53.6 0-16 5.4-30 13.4-39.8l9.8-11.6-15-2.8c-10.4-2-18-7.6-24.6-16.6-6.8-9.2-11.8-21.6-15.2-36.2-6.4-26.2-7.8-58.2-8-86.6h35l9.4-128.6c24.4-5.6 50.4-5.2 73.8 0l8.6 128.6h33.2c0 28.6-0.4 61.2-6.2 87.8-3.2 14.4-8 27-14.6 36s-14.8 14.4-26.6 16.2l-15.2 2.4 9.6 12c7.8 9.6 13 23.6 13 39.2 0 30.8-19.2 53.6-40.2 53.6zM511.8 573.2c-73.4 0-139.8-10.6-186.4-27-23.2-8.2-41.4-18-52.6-27.4-11.4-9.4-15-17.2-15-23.6s3.6-14.2 15-23.6c11.2-9.4 29.4-19 52.6-27.4 46.6-16.4 113-27 186.4-27s139.8 10.6 186.4 27c23.2 8.4 41.4 18 52.6 27.4 11.4 9.4 15 17.2 15 23.6s-3.6 14.2-15 23.6c-11.2 9.4-29.4 19.2-52.6 27.4-46.6 16.4-113 27-186.4 27zM301.8 414.8v-91.6h36v79.6c-8.4 2.4-16.6 4.8-24.4 7.6-4 1.4-7.8 2.8-11.6 4.4zM721.8 414.8c-3.8-1.6-7.6-3-11.6-4.4-7.8-2.8-16-5.2-24.4-7.6v-79.6h36zM507.6 376.8c-19-2.4-36.2-24.6-36.2-53.6 0-16 5.4-30 13.4-39.8l9.8-11.6-15-2.8c-10.4-2-18-7.6-24.6-16.6-6.8-9.2-11.8-21.6-15.2-36.2-6.4-26.2-7.8-58.2-8-86.6h35l9.4-128.6c24.4-5.6 50.4-5.2 73.8 0l8.6 128.6h33.2c0 28.6-0.4 61.2-6.2 87.8-3.2 14.4-8 27-14.6 36s-14.8 14.4-26.6 16.2l-15.2 2.4 9.6 12c7.8 9.6 13 23.6 13 39.2 0 30.8-19.2 53.6-40.2 53.6z" />
<glyph unicode="&#xe91f;" glyph-name="position-marker" d="M512 925.784c-151.46 0-274.244-122.784-274.244-274.244 0.11-46.5 12.044-92.214 23.16-112.524l251.084-568.8 239.964 548.488h-0.126c22.54 40.648 34.376 86.36 34.404 132.836 0.002 151.46-122.782 274.244-274.242 274.244zM512 788.664c75.729 0 137.12-61.391 137.12-137.12 0-0.001 0-0.003 0-0.004v0c0-75.729-61.391-137.12-137.12-137.12v0c-75.729 0-137.12 61.391-137.12 137.12v0c0 75.729 61.391 137.12 137.12 137.12v0z" />
<glyph unicode="&#xe920;" glyph-name="checkered-flag" d="M751.394 919.7l-31.21-7.064 32.85-145.21c-14.31 2.19-29.52 4.62-46.652 7.348-7.628 1.216-14.472 2.28-21.384 3.36l13.044-57.66c14.312-2.186 29.524-4.616 46.656-7.346 7.63-1.214 14.474-2.28 21.386-3.36l71.69-316.88c-14.312 2.19-29.52 4.62-46.652 7.348-7.632 1.214-14.476 2.28-21.39 3.36l13.044-57.66c14.312-2.188 29.526-4.616 46.656-7.346 7.63-1.216 14.474-2.284 21.386-3.364l81.204-358.93 31.21 7.064-211.838 936.34zM782.774 345.94c-25.78 3.946-47.86 6.916-67.446 8.092l14.894-65.84c0.294-0.032 0.556-0.054 0.85-0.086h0.004c3.244-0.346 6.604-0.732 10.086-1.156 3.484-0.426 7.090-0.892 10.832-1.392h0.004c3.74-0.5 7.614-1.040 11.634-1.614h0.004c8.040-1.148 16.652-2.436 25.914-3.864h0.004c2.616-0.4 5.7-0.9 8.42-1.326l-15.2 67.188zM715.328 354.032l-13.352 59.004c-28.7 3.034-48.324 2.968-65.414-0.9l14.124-62.42c20.64 4.668 41.094 5.728 64.644 4.316zM650.684 349.712c-20.64-4.666-39.554-12.514-60.204-23.926l14.806-65.43c24.406 14.728 42.176 23.014 59.19 26.86l0.168 0.040 0.164 0.036-14.124 62.42zM590.48 325.786l-13.348 59.006c-15.62-9.58-34.328-22.106-57.092-37.68l13.046-57.66c21.572 14.66 40.22 26.84 57.394 36.334zM533.086 289.454c-11.976-8.14-24.66-16.88-38.95-26.716-6.36-4.384-12.080-8.294-17.854-12.244l15.028-66.426c11.184 7.704 23.11 16.040 36.32 25.25 7.286 4.956 13.914 9.44 20.45 13.852l-14.994 66.28zM476.282 250.494l-13.046 57.66c-21.572-14.654-40.22-26.84-57.394-36.334l13.348-59.004c15.62 9.58 34.328 22.108 57.094 37.68zM419.19 212.814c-24.6-15.090-42.34-23.48-59.43-27.346l14.12-62.414c20.664 4.714 39.548 12.666 60.136 24.22l-14.828 65.54zM359.76 185.468l-14.128 62.426c-20.64-4.67-41.088-5.728-64.64-4.316l13.352-59.006c28.7-3.034 48.324-2.972 65.414 0.894zM294.344 184.574c-18.22 1.926-40.5 5.176-67.754 9.434l15.2-67.184s32.088-5.84 67.448-8.086l-14.896 65.834zM226.59 194.008l-13.044 57.66c-14.312 2.19-29.526 4.62-46.656 7.348-7.63 1.216-14.474 2.284-21.386 3.36l13.046-57.66c14.312-2.186 29.52-4.616 46.654-7.344 7.63-1.216 14.474-2.284 21.386-3.364zM213.546 251.668c25.78-3.944 47.86-6.914 67.446-8.090l-14.894 65.84c-18.224 1.924-40.504 5.174-67.756 9.432l15.2-67.184zM198.346 318.852l-13.046 57.66c-14.312 2.19-29.52 4.62-46.652 7.348-7.63 1.216-14.474 2.28-21.386 3.36l13.044-57.66c14.312-2.186 29.526-4.616 46.656-7.346 7.63-1.216 14.472-2.28 21.384-3.36zM185.3 376.512c25.78-3.944 47.86-6.916 67.45-8.090l-14.9 65.84c-18.22 1.928-40.5 5.18-67.748 9.436l15.2-67.184zM170.1 443.696l-13.046 57.66c-14.312 2.188-29.52 4.62-46.652 7.348-7.628 1.214-14.472 2.28-21.384 3.36l13.040-57.66c14.314-2.188 29.528-4.612 46.66-7.34 7.628-1.22 14.472-2.288 21.386-3.368zM157.054 501.356c25.78-3.944 47.86-6.916 67.45-8.090l-14.894 65.84c-18.22 1.926-40.504 5.18-67.754 9.436l15.2-67.184zM141.854 568.542l-13.040 57.664c-14.314 2.188-29.528 4.62-46.66 7.346-7.628 1.216-14.472 2.284-21.384 3.364l13.046-57.66c14.312-2.19 29.52-4.62 46.652-7.348 7.63-1.216 14.474-2.284 21.388-3.364zM128.814 626.206c25.78-3.944 47.856-6.916 67.444-8.090l-14.896 65.84c-0.294 0.032-0.556 0.050-0.852 0.080h-0.004c-1.62 0.174-3.36 0.39-5.040 0.584-1.68 0.19-3.3 0.36-5.040 0.576-3.484 0.424-7.090 0.89-10.83 1.39h-0.006c-3.74 0.5-7.614 1.036-11.634 1.61h-0.004c-10.312 1.47-21.984 3.26-34.344 5.19l15.2-67.18zM196.258 618.116l13.35-59.008c28.7-3.034 48.324-2.968 65.414 0.9l-14.12 62.42c-20.64-4.67-41.096-5.726-64.646-4.312zM260.898 622.428c20.64 4.67 39.556 12.516 60.206 23.93l-14.9 65.84c-24.6-15.094-42.34-23.48-59.428-27.344l14.12-62.426zM246.778 684.854v0.008l-0.148-0.040 0.146 0.032zM321.104 646.358l13.348-59.004c15.62 9.58 34.328 22.106 57.092 37.68l-13.046 57.66c-21.572-14.66-40.22-26.844-57.394-36.336zM378.498 682.694c11.976 8.136 24.66 16.876 38.95 26.714 6.36 4.38 12.080 8.292 17.854 12.24l-15.2 67.186c-11.974-8.136-24.66-16.88-38.948-26.714-6.364-4.384-12.080-8.294-17.856-12.246l15.2-67.18zM435.302 721.65l13.048-57.66c21.572 14.66 40.22 26.84 57.394 36.332l-13.348 59.004c-15.62-9.58-34.33-22.1-57.096-37.676zM492.396 759.326c24.6 15.094 42.34 23.48 59.428 27.348l-14.12 62.414-0.164-0.032c-20.576-4.674-39.446-12.512-60.040-23.894l14.894-65.836zM551.824 786.674l14.126-62.42c20.64 4.668 41.088 5.728 64.64 4.314l-13.352 59.004c-28.7 3.034-48.32 2.968-65.412-0.9zM617.238 787.574c18.224-1.928 40.504-5.18 67.756-9.436l-15.2 67.184s-32.094 5.824-67.44 8.060l14.886-65.81zM630.592 728.568l14.894-65.84c18.22-1.926 40.5-5.18 67.75-9.436l-15.2 67.186c-25.78 3.944-47.86 6.916-67.446 8.090zM713.236 653.292l13.046-57.66c14.312-2.186 29.52-4.616 46.652-7.344 7.628-1.216 14.472-2.288 21.384-3.368l-13.040 57.66c-14.314 2.188-29.528 4.616-46.66 7.346-7.628 1.216-14.472 2.284-21.386 3.364zM726.282 595.632c-25.78 3.946-47.86 6.92-67.45 8.092l14.9-65.84c18.22-1.928 40.496-5.18 67.748-9.434l-15.2 67.186zM741.482 528.448l13.046-57.66c14.312-2.19 29.52-4.62 46.652-7.348 7.63-1.22 14.474-2.286 21.386-3.366l-13.046 57.66c-14.312 2.19-29.52 4.62-46.652 7.348-7.63 1.22-14.474 2.286-21.388 3.366zM754.528 470.788c-25.78 3.94-47.86 6.914-67.45 8.090l14.896-65.84c18.22-1.926 40.504-5.18 67.754-9.434l-15.2 67.186zM687.078 478.878l-13.346 59c-28.7 3.036-48.324 2.974-65.414-0.892l14.12-62.426c20.64 4.668 41.092 5.728 64.64 4.314zM622.438 474.558c-20.64-4.666-39.552-12.51-60.2-23.924l14.892-65.84c24.6 15.094 42.34 23.48 59.43 27.344l-14.12 62.42zM562.238 450.634l-13.354 59.004c-15.62-9.58-34.328-22.106-57.094-37.68l13.048-57.66c21.572 14.66 40.224 26.844 57.4 36.336zM504.838 414.298c-11.976-8.136-24.66-16.876-38.95-26.714-6.364-4.38-12.080-8.29-17.854-12.24l15.2-67.184c11.974 8.136 24.66 16.88 38.948 26.716 6.364 4.38 12.080 8.292 17.856 12.24l-15.2 67.184zM448.034 375.342l-13.044 57.66c-21.572-14.66-40.224-26.84-57.4-36.332l13.35-59.008c15.62 9.58 34.33 22.108 57.096 37.68zM390.94 337.662c-24.6-15.094-42.34-23.48-59.428-27.344l14.12-62.42c20.64 4.668 39.56 12.512 60.208 23.924l-14.9 65.84zM331.512 310.318l-14.12 62.42c-20.64-4.668-41.092-5.726-64.64-4.314l13.346-59c28.7-3.036 48.32-2.97 65.412 0.896zM317.392 372.738c20.64 4.672 39.552 12.52 60.2 23.932l-14.892 65.84c-24.6-15.094-42.344-23.48-59.434-27.348l14.124-62.42zM303.266 435.162l-14.12 62.42c-20.64-4.668-41.092-5.728-64.64-4.314l13.346-59.004c28.7-3.032 48.324-2.966 65.414 0.9zM289.146 497.582c20.64 4.672 39.552 12.52 60.2 23.932l-14.892 65.84c-24.6-15.094-42.34-23.48-59.43-27.348l14.12-62.42zM349.346 521.514l13.354-59.004c15.62 9.58 34.324 22.106 57.090 37.68l-13.044 57.66c-21.572-14.66-40.224-26.844-57.4-36.336zM406.746 557.85c11.976 8.136 24.66 16.874 38.95 26.71 6.36 4.38 12.080 8.29 17.854 12.24l-15.2 67.188c-11.974-8.136-24.66-16.88-38.948-26.714-6.36-4.38-12.080-8.292-17.854-12.24l15.2-67.186zM463.55 596.802l13.044-57.66c21.572 14.66 40.224 26.844 57.4 36.336l-13.35 59.004c-15.62-9.58-34.328-22.106-57.094-37.68zM520.644 634.482c24.6 15.094 42.34 23.48 59.43 27.348l-14.12 62.42c-20.64-4.668-39.56-12.516-60.208-23.928l14.9-65.84zM580.074 661.83l14.12-62.42c20.64 4.668 41.092 5.728 64.64 4.314l-13.346 59.006c-28.7 3.034-48.324 2.968-65.414-0.9zM594.194 599.41c-20.64-4.672-39.552-12.52-60.2-23.932l14.892-65.84c24.6 15.094 42.344 23.48 59.434 27.348l-14.124 62.42zM476.594 539.142c-11.976-8.136-24.66-16.872-38.946-26.71-6.364-4.38-12.084-8.292-17.86-12.24l15.204-67.19c11.976 8.136 24.66 16.88 38.946 26.714 6.36 4.38 12.080 8.292 17.852 12.244l-15.2 67.18z" />
<glyph unicode="&#xe921;" glyph-name="statistics" d="M46 914v-932h932v36h-896v164.368l171.708 114.468 140.046-140.044 130.266 521.072 250.54-125.264 135.58 215.94 38.634-23.716 12.204 142.2-121.288-75.232 39.768-24.414-118.020-187.98-261.464 130.732-125.73-502.924-115.96 115.956-176.284-117.53v688.368h-36z" />
<glyph unicode="&#xe922;" glyph-name="skull" d="M525.62 927.804c-20.67 0.088-41.314-1.2-61.734-3.788l-5.36-0.492c3.508-38.1-2.354-65.4-14.288-79.38s-31.928-20.908-72.204-12.656l-37.372 7.66 16.852-34.22c11.488-23.332 5.788-48.26-10.84-62.772s-45.61-21.188-89.594 2.886l-34.514 18.894 7.164-38.688c6.652-35.916-3.63-52.82-20.316-63.98-16.686-11.164-43.256-14.446-66.3-9.45l-0.28-1.288-4.584 3.020c-16.832-60.14-21.114-130.612-8.504-212.16l30.368-188.27 140.59 26.48 6.92-36.732-30.768-5.794 89.064-254.654h50.78l-15.62 123.78 37.068 4.674 16.208-128.452h59.226v130.65h37.38v-130.648h59.22l16.21 128.456 37.068-4.676-15.62-123.78h50.972l88.704 253.616-36.266 6.832 6.92 36.73 140.37-26.44 36.472 188.44c25.268 163.766-19.18 283.42-97.42 363.932-78.27 80.536-191.9 121.768-305.932 122.272h-0.040zM496.6 887.524c91.14-58.972 79.412-195.56-39.174-141.668 69.544-135.886-49.144-194.296-139.676-110.4 7.788-75.2-80.186-96.046-138.632-22.112 15.924 2.332 31.406 7.71 45.076 16.856 21.126 14.132 35.916 38.46 38.2 69.57 41.704-13.736 78.77-6.8 102.86 14.226 21.916 19.132 32.288 48.206 28.736 77.27 33.826-1.452 61.136 8.060 78.68 28.612 15.248 17.866 22.254 41.064 23.93 67.644zM372.8 551.564c65.768 0 119.080-53.312 119.080-119.080 0-65.77-53.312-119.086-119.080-119.086-65.766 0-119.086 53.314-119.086 119.084 0 65.772 53.32 119.080 119.086 119.080zM687.886 551.564c65.768 0 119.080-53.312 119.080-119.080 0-65.77-53.312-119.086-119.080-119.086-65.766 0-119.086 53.314-119.086 119.084 0 65.772 53.32 119.080 119.086 119.080zM526.536 392.084l79.874-203.2-34.060-14.1-45.81 70.954-45.81-70.954-35.24 14.096 81.046 203.206z" />
<glyph unicode="&#xe923;" glyph-name="trophy" d="M512.312 916.75c-91.21 0-173.752-5.704-234.44-15.126-30.34-4.71-55.108-10.22-73.748-17.060-9.32-3.42-17.136-7.030-23.936-12.188-6.476-4.914-13.3-12.72-13.94-23.5h-1.5c0-20.16 0.724-40.044 2.128-59.626h-51.816c-0.24 15.904 0.006 31.844 0.752 47.75l-53.624 12.56c-17.088-213.344 66.012-420.992 218.94-568.87l31.31 59.188c-8.396 6.954-16.5 14.126-24.314 21.5 11.692 12.224 24.586 23.52 38.56 33.686 26.936-26.344 56.364-47.13 87.626-61.31 44.228-35.488 16.106-58.736-47-72.5 117.726-21.2 77.896-124.534-28.25-184.626-4.28-0.54-8.512-1.046-12.56-1.624-24.094-3.436-43.752-7.42-58.812-12.5-7.53-2.54-13.916-5.2-19.812-9.312-5.9-4.11-13.252-11.41-13.252-22.812 0-11.404 7.354-18.64 13.252-22.75 5.896-4.11 12.28-6.774 19.812-9.314 15.060-5.080 34.72-9.064 58.812-12.5 48.188-6.872 113.568-11.060 185.812-11.060 72.246 0 137.624 4.188 185.812 11.060 24.096 3.436 43.754 7.42 58.814 12.5 7.528 2.54 13.914 5.204 19.81 9.312 5.896 4.11 13.25 11.348 13.25 22.75 0 11.404-7.354 18.704-13.25 22.814s-12.28 6.774-19.812 9.312c-15.060 5.080-34.72 9.064-58.816 12.5-4.026 0.574-8.24 1.088-12.5 1.626-106.152 60.090-145.98 163.42-28.25 184.624-63.136 13.772-91.26 37.044-46.936 72.56 31.48 14.3 61.094 35.31 88.184 61.94 13.296-9.546 25.68-20.076 36.94-31.44-8.21-8.344-16.676-16.514-25.44-24.434l32.376-59.188c158.236 143.91 232.39 359.060 220.060 570l-54.684-15.94c0.9-15.22 1.28-30.38 1.124-45.5h-51.188c1.404 19.584 2.126 39.47 2.126 59.628h-1.5c-0.646 10.78-7.526 18.586-14 23.5-6.804 5.16-14.62 8.766-23.94 12.186-18.64 6.844-43.408 12.354-73.75 17.064-60.684 9.42-143.226 15.126-234.44 15.126zM512.312 879.374c89.644 0 170.852-5.708 228.688-14.686 28.92-4.49 52.12-9.864 66.626-15.188 2.080-0.764 3.55-1.5 5.25-2.25-1.7-0.75-3.16-1.484-5.25-2.25-14.504-5.324-37.708-10.76-66.626-15.25-57.836-8.98-139.044-14.688-228.688-14.688-89.64 0-170.85 5.71-228.688 14.69-28.92 4.49-52.12 9.926-66.624 15.25-2.1 0.772-3.54 1.496-5.25 2.25 1.706 0.752 3.154 1.48 5.25 2.25 14.504 5.324 37.706 10.7 66.626 15.188 57.836 8.98 139.044 14.686 228.686 14.686zM117.812 735.626h54.688c16.114-115.756 56.46-217.66 112.376-292.5-13.948-11.48-26.814-23.936-38.376-37.376-77.296 92.912-118.084 209.294-128.688 329.876zM852.188 735.626h54c-11.168-119.266-55.516-232.306-130.128-325.626-10.88 12.11-22.812 23.46-35.684 33.94 55.62 74.76 95.746 176.35 111.812 291.684z" />
<glyph unicode="&#xe924;" glyph-name="thumb-up" d="M604.688 902.972c-4.772-2.708-8.668-6.994-12.546-14.364-4.67-8.876-8.56-21.672-11.88-36.58-6.632-29.82-11.020-67.656-24.196-102.52l-1.080-2.86-1.964-2.34c-106.616-127.18-184.14-196.72-238.028-297.634l-4.92-9.21-10.44-0.3s-21.26-0.644-45.214-4.92c-23.956-4.274-86.45-6.632-92.264-14.034-26.66-33.94-46.96-91.52-50.144-140.92-3.184-49.394 7.744-97.972 33.352-131.136 1.716-2.22 59.060-9.14 76.44-10.604 17.386-1.46 33.040-0.324 33.040-0.324l12.16 0.914 5.356-10.96c29.66-60.65 122.912-101.19 221.874-132.112 8.768-0.496 23.924 3.64 41.704 12.59-39.636 15.14-70.74 28.060-105 46.174l-8.846 4.676-0.694 9.98c-1.792 25.628 11.344 46.546 27.22 60.512 5.080 4.474 10.48 8.432 15.97 12.076-3.080 1.37-6.148 2.76-9.24 4.106l-9.396 4.1-1.27 10.172c-3.504 28.080 5.132 55.794 23.328 75.456 3.704 4 7.864 7.62 12.38 10.81l-0.46 0.2-0.876 10.62c-2.626 31.656 17.44 58.88 40.59 78.040 4.26 3.528 8.694 6.88 13.246 9.97l-1.82 4.296c-8.98 21.216-4.672 43.57 6.020 59.63 10.7 16.060 26.714 27.314 43.84 33.58l0.464 0.172 0.472 0.146c33.312 10.156 65.232 2.014 95.512-6.060 30.28-8.072 59.684-16.44 90.28-13.846 18.572-31.004 16.19-25.046 20.98-34.352l-17.932-1.52c-38.834-3.294-72.96 7.030-102.6 14.934-29.42 7.84-53.664 12.912-75.232 6.528-10.264-3.866-20.42-11.43-25.816-19.54-4.3-6.452-6.12-12.36-4.676-19.5 43.536-18.536 76.748-38.694 114.080-49.596 39.364-11.492 84.98-14.12 158.65 6.070 11.716 5.684 23.23 15.356 30.028 25.892 7.006 10.854 9.274 21.292 5.74 32-12.83 38.86-30.404 73.368-66.056 97.030-80.31 33.406-131.916 33.664-202.55 26.672-1.254 10.43-0.874 21.288 0.044 36.18 4.132 30.306 17.69 67.688 33.49 110.192 19.584 52.684 43.384 110.314 60.832 157.784-4.084 39.58-15.236 61.74-30.088 74.6-14.59 12.63-35.12 18.108-61.864 19.128zM575.628 321.576c-9.040-2.2-21.904-7.52-33.026-16.726-13.526-11.2-23.34-25.976-26.536-37.98 49.156-22.96 86.18-45.888 149.26-66.172l133.84 7.588c23.992 8.4 39.56 17.046 48.14 24.394 8.84 7.58 10.584 12.588 10.9 17.54 0.53 8.3-7.66 22.22-19.76 36.86-75.028-19.67-127.84-17.124-172.068-4.21-33.254 9.71-61.048 24.45-90.75 38.706zM524.832 222.756c-12.76-0.39-22.574-5.846-30.4-14.3-8.54-9.232-13.706-22.654-14.18-36.98 46.626-20.748 90.16-42.27 149.38-60.814l113.080 2.19c43.724 1.806 55.58 19.58 57.836 35.708 1.2 8.56-0.986 17.008-5.42 23.44l-134.54-7.63-3.14 0.992c-57.22 18.070-94.112 38.19-132.53 57.396h-0.088zM504.912 120.882c-12.28-6.664-24.106-13.506-32.516-20.904-8.010-7.046-12.808-13.34-14.474-21.38 34.792-17.65 67.866-30.726 114.772-48.324l93.020-3.192c16.030 6.854 25.6 13.38 30.16 18.22 4.88 5.18 5.274 7.594 5.206 11.746-0.070 4.24-2.688 10.826-6 18.874l-70.806-1.37-2.77 0.854c-45.756 14.14-82.32 29.98-116.59 45.48z" />
</font>
</defs>
</svg>
